<svg width="275" height="47" viewBox="0 0 275 47" fill="none" xmlns="http://www.w3.org/2000/svg">
<path d="M0 23.75H10.9675C13.47 23.75 16.0625 23.5975 18.1925 22.285C19.8575 21.2591 21.2591 19.8575 22.285 18.1925C23.5975 16.0625 23.75 13.47 23.75 10.9675V0H7.5C5.51088 0 3.60322 0.790176 2.1967 2.1967C0.790176 3.60322 0 5.51088 0 7.5L0 23.75ZM58.0688 2.5C58.0688 3.16304 57.8054 3.79893 57.3365 4.26777C56.8677 4.73661 56.2318 5 55.5688 5C54.9057 5 54.2698 4.73661 53.801 4.26777C53.3321 3.79893 53.0688 3.16304 53.0688 2.5C53.0688 1.83696 53.3321 1.20107 53.801 0.732233C54.2698 0.263392 54.9057 0 55.5688 0C56.2318 0 56.8677 0.263392 57.3365 0.732233C57.8054 1.20107 58.0688 1.83696 58.0688 2.5ZM264.639 15.13C271.628 15.13 275 20.0112 275 25.665V36.2838H267.686V26.925C267.686 24.3625 266.751 22.2475 264.07 22.2475C261.389 22.2475 260.495 24.3625 260.495 26.925V36.2825H253.181V26.925C253.181 24.3625 252.288 22.2475 249.605 22.2475C246.924 22.2475 245.989 24.3625 245.989 26.925V36.2825H238.676V25.6637C238.676 20.01 242.048 15.1287 249.036 15.1287C252.856 15.1287 255.619 16.6337 256.879 19.115C258.219 16.6337 261.145 15.1275 264.639 15.1275V15.13ZM225.534 29.775C227.89 29.775 228.906 27.6188 228.906 25.055V15.9425H236.219V25.95C236.219 31.93 232.725 36.8937 225.534 36.8937C218.341 36.8937 214.848 31.9312 214.848 25.95V15.9425H222.161V25.055C222.161 27.6175 223.176 29.775 225.534 29.775ZM204.094 36.9338C199.502 36.9338 196.536 35.3475 194.789 32.2562L200.071 29.2863C200.803 30.5875 201.899 31.2387 203.727 31.2387C205.231 31.2387 205.921 30.71 205.921 30.0588C205.921 27.5775 195.195 30.1 195.195 22.2087C195.195 18.3838 198.445 15.2925 203.971 15.2925C208.806 15.2925 211.447 17.6513 212.626 19.93L207.344 22.94C206.898 21.72 205.515 20.9875 204.134 20.9875C203.078 20.9875 202.509 21.435 202.509 22.045C202.509 24.5675 213.235 22.2487 213.235 29.8962C213.235 34.1675 209.05 36.9338 204.094 36.9338ZM178.541 45.64H171.227V26.0725C171.227 19.8475 175.9 15.3325 182.401 15.3325C188.74 15.3325 193.575 20.1737 193.575 26.0725C193.575 32.5812 189.268 36.8937 182.807 36.8937C181.304 36.8937 179.801 36.4463 178.541 35.7537V45.64ZM182.401 30.0187C184.718 30.0187 186.261 28.2287 186.261 26.1125C186.261 23.9575 184.718 22.2075 182.401 22.2075C180.085 22.2075 178.541 23.9575 178.541 26.1138C178.541 28.2288 180.085 30.0187 182.401 30.0187ZM163.901 13.7875C161.504 13.7875 159.514 11.7937 159.514 9.39375C159.514 6.99375 161.504 5 163.901 5C166.299 5 168.29 6.99375 168.29 9.39375C168.29 11.7937 166.299 13.7875 163.901 13.7875ZM160.245 15.9425H167.559V36.2838H160.245V15.9425ZM146.212 36.8937C139.874 36.8937 135.039 32.0125 135.039 26.0725C135.039 20.1737 139.874 15.2925 146.212 15.2925C152.551 15.2925 157.386 20.1737 157.386 26.0725C157.386 32.0125 152.551 36.8937 146.212 36.8937ZM146.212 30.0187C148.529 30.0187 150.072 28.2287 150.072 26.1125C150.072 23.9575 148.529 22.1675 146.212 22.1675C143.896 22.1675 142.353 23.9575 142.353 26.1125C142.353 28.2287 143.896 30.0187 146.212 30.0187ZM121.229 46.25C116.191 46.25 112.534 44.0125 110.665 40.025L116.719 36.7712C117.369 38.155 118.588 39.5788 121.106 39.5788C123.749 39.5788 125.495 37.91 125.699 34.9813C124.724 35.8363 123.179 36.4862 120.864 36.4862C115.215 36.4862 110.664 32.1338 110.664 26.0312C110.664 20.1338 115.5 15.3325 121.839 15.3325C128.34 15.3325 133.013 19.8487 133.013 26.0725V34.1275C133.013 41.45 127.933 46.25 121.229 46.25ZM121.716 29.6125C123.91 29.6125 125.576 28.1062 125.576 25.8687C125.576 23.6725 123.911 22.2075 121.716 22.2075C119.562 22.2075 117.856 23.6725 117.856 25.87C117.856 28.1075 119.562 29.6112 121.716 29.6112V29.6125ZM98.2588 36.8937C91.92 36.8937 87.0837 32.0125 87.0837 26.0725C87.0837 20.1737 91.92 15.2925 98.2588 15.2925C104.596 15.2925 109.432 20.1737 109.432 26.0725C109.432 32.0125 104.598 36.8937 98.2588 36.8937ZM98.2588 30.0187C100.575 30.0187 102.119 28.2287 102.119 26.1125C102.119 23.9575 100.575 22.1675 98.2588 22.1675C95.9425 22.1675 94.3987 23.9575 94.3987 26.1125C94.3987 28.2287 95.9425 30.0187 98.2588 30.0187ZM73.7663 8.825V29.3675H85.875V36.2838H72.75C68.1188 36.2838 66.25 33.8425 66.25 29.9775V8.825H73.7663Z" fill="#1E1E1E"/>
</svg>
