<svg width="212" height="50" viewBox="0 0 212 50" fill="none" xmlns="http://www.w3.org/2000/svg">
<g clip-path="url(#clip0_179_21087)">
<path fill-rule="evenodd" clip-rule="evenodd" d="M13.2685 3.125V50H0.75V3.125H13.2685Z" fill="#283841"/>
<path fill-rule="evenodd" clip-rule="evenodd" d="M19.5273 3.125H46.1292C54.7715 3.125 61.7773 10.1205 61.7773 18.75C61.7773 27.3795 54.7715 34.375 46.1292 34.375H32.0458V50H19.5273V3.125ZM32.0458 21.875H46.1292C47.8577 21.875 49.2588 20.4759 49.2588 18.75C49.2588 17.0241 47.8577 15.625 46.1292 15.625H32.0458V21.875Z" fill="#283841"/>
<path fill-rule="evenodd" clip-rule="evenodd" d="M108.723 3.125V27.3438C108.723 32.9529 113.276 37.5 118.894 37.5C124.511 37.5 129.065 32.9529 129.065 27.3438V3.125H141.584V27.3438C141.584 39.8565 131.425 50 118.894 50C106.363 50 96.2041 39.8565 96.2041 27.3438V3.125H108.723Z" fill="#283841"/>
<path fill-rule="evenodd" clip-rule="evenodd" d="M66.4726 25C66.4726 12.9187 76.2808 3.125 88.38 3.125H91.5096V15.625H88.38C83.1946 15.625 78.9911 19.8224 78.9911 25V26.5625C78.9911 39.5066 68.4822 50 55.5189 50H53.9541V37.5H55.5189C61.5685 37.5 66.4726 32.6031 66.4726 26.5625V25Z" fill="#283841"/>
<path d="M212 4.6875C212 7.27634 209.899 9.375 207.305 9.375C204.713 9.375 202.611 7.27634 202.611 4.6875C202.611 2.09866 204.713 0 207.305 0C209.899 0 212 2.09866 212 4.6875Z" fill="#283841"/>
<path d="M155.025 50.0001L160.999 25.0227L165.44 40.0492C168.088 49.0115 180.802 49.0115 183.45 40.0492L187.89 25.0227L193.864 50.0001H206.734L197.342 10.7245C195.108 1.3844 181.927 1.03858 179.204 10.2487L174.445 26.3542L169.685 10.2488C166.964 1.03863 153.782 1.38435 151.548 10.7245L142.155 50.0001H155.025Z" fill="#283841"/>
</g>
<defs>
<clipPath id="clip0_179_21087">
<rect width="211.25" height="50" fill="white" transform="translate(0.75)"/>
</clipPath>
</defs>
</svg>
