<svg width="220" height="51" viewBox="0 0 220 51" fill="none" xmlns="http://www.w3.org/2000/svg">
<g clip-path="url(#clip0_179_21082)">
<path fill-rule="evenodd" clip-rule="evenodd" d="M18.75 35.5C17.0924 35.5 15.5027 34.8415 14.3306 33.6694C13.1585 32.4973 12.5 30.9076 12.5 29.25V0.5H0V29.25C0 39.605 8.395 48 18.75 48H32.5V35.5H18.75ZM56.25 13C54.7726 13 53.3097 13.291 51.9448 13.8564C50.5799 14.4217 49.3397 15.2504 48.2951 16.295C47.2504 17.3397 46.4217 18.5799 45.8564 19.9448C45.291 21.3097 45 22.7726 45 24.25C45 25.7274 45.291 27.1903 45.8564 28.5552C46.4217 29.9201 47.2504 31.1603 48.2951 32.205C49.3397 33.2496 50.5799 34.0783 51.9448 34.6436C53.3097 35.209 54.7726 35.5 56.25 35.5C59.2337 35.5 62.0952 34.3147 64.2049 32.205C66.3147 30.0952 67.5 27.2337 67.5 24.25C67.5 21.2663 66.3147 18.4048 64.2049 16.295C62.0952 14.1853 59.2337 13 56.25 13ZM32.5 24.25C32.5 11.1337 43.1338 0.5 56.25 0.5C69.3662 0.5 80 11.1337 80 24.25C80 37.3662 69.3662 48 56.25 48C43.1338 48 32.5 37.3662 32.5 24.25ZM191.25 13C188.266 13 185.405 14.1853 183.295 16.295C181.185 18.4048 180 21.2663 180 24.25C180 27.2337 181.185 30.0952 183.295 32.205C185.405 34.3147 188.266 35.5 191.25 35.5C194.234 35.5 197.095 34.3147 199.205 32.205C201.315 30.0952 202.5 27.2337 202.5 24.25C202.5 21.2663 201.315 18.4048 199.205 16.295C197.095 14.1853 194.234 13 191.25 13ZM167.5 24.25C167.5 11.1337 178.134 0.5 191.25 0.5C204.366 0.5 215 11.1337 215 24.25C215 37.3662 204.366 48 191.25 48C178.134 48 167.5 37.3662 167.5 24.25ZM106.25 0.5C93.1338 0.5 82.5 11.1337 82.5 24.25C82.5 37.3662 93.1338 48 106.25 48H141.25C143.711 48 146.085 47.625 148.318 46.93L155 50.5L162.21 36.995C164.042 33.5571 165 29.7216 165 25.8263V24.25C165 11.1337 154.366 0.5 141.25 0.5H106.25ZM152.5 24.25C152.5 21.2663 151.315 18.4048 149.205 16.295C147.095 14.1853 144.234 13 141.25 13H106.25C104.773 13 103.31 13.291 101.945 13.8564C100.58 14.4217 99.3397 15.2504 98.2951 16.295C97.2504 17.3397 96.4217 18.5799 95.8564 19.9448C95.291 21.3097 95 22.7726 95 24.25C95 25.7274 95.291 27.1903 95.8564 28.5552C96.4217 29.9201 97.2504 31.1603 98.2951 32.205C99.3397 33.2496 100.58 34.0783 101.945 34.6436C103.31 35.209 104.773 35.5 106.25 35.5H141.25C144.219 35.5001 147.067 34.3268 149.174 32.2359C151.281 30.1451 152.477 27.306 152.5 24.3375V24.25Z" fill="#283841"/>
<path d="M220 3.625C220 4.4538 219.671 5.24866 219.085 5.83471C218.499 6.42076 217.704 6.75 216.875 6.75C216.046 6.75 215.251 6.42076 214.665 5.83471C214.079 5.24866 213.75 4.4538 213.75 3.625C213.75 2.7962 214.079 2.00134 214.665 1.41529C215.251 0.82924 216.046 0.5 216.875 0.5C217.704 0.5 218.499 0.82924 219.085 1.41529C219.671 2.00134 220 2.7962 220 3.625Z" fill="#283841"/>
</g>
<defs>
<clipPath id="clip0_179_21082">
<rect width="220" height="50" fill="white" transform="translate(0 0.5)"/>
</clipPath>
</defs>
</svg>
