<svg width="492" height="500" viewBox="0 0 492 500" fill="none" xmlns="http://www.w3.org/2000/svg">
<path opacity="0.5" d="M167.274 213.427L488.483 125.651" stroke="#393E3F" stroke-width="0.15" stroke-miterlimit="10" stroke-linecap="round"/>
<path d="M423.978 44.1396L491.495 164.558" stroke="#393E3F" stroke-width="0.26" stroke-miterlimit="10" stroke-linecap="round"/>
<path d="M491.495 302.03L287.537 493.807" stroke="#393E3F" stroke-width="0.26" stroke-miterlimit="10" stroke-linecap="round"/>
<path d="M491.495 294.374L287.537 458.308" stroke="#393E3F" stroke-width="0.26" stroke-miterlimit="10" stroke-linecap="round"/>
<path d="M1 196.121L155.058 138.576" stroke="#393E3F" stroke-width="0.26" stroke-miterlimit="10" stroke-linecap="round"/>
<path d="M423.977 218.155L137.884 138.576" stroke="#393E3F" stroke-width="0.26" stroke-miterlimit="10" stroke-linecap="round"/>
<path d="M1 305.859L165.93 357.031" stroke="#393E3F" stroke-width="0.26" stroke-miterlimit="10" stroke-linecap="round"/>
<path d="M313.291 458.308L1 320.476" stroke="#393E3F" stroke-width="0.26" stroke-miterlimit="10" stroke-linecap="round"/>
<path d="M313.291 493.807L1 335.093" stroke="#393E3F" stroke-width="0.26" stroke-miterlimit="10" stroke-linecap="round"/>
<path d="M301.471 197.981L491.495 237.2" stroke="#393E3F" stroke-width="0.26" stroke-miterlimit="10" stroke-linecap="round"/>
<path d="M321.884 199.361L1 242.517" stroke="#393E3F" stroke-width="0.26" stroke-miterlimit="10" stroke-linecap="round"/>
<path d="M1 302.846L330.861 392.878" stroke="#393E3F" stroke-width="0.26" stroke-miterlimit="10" stroke-linecap="round"/>
<path d="M305.994 392.879L491.494 283.825" stroke="#393E3F" stroke-width="0.26" stroke-miterlimit="10" stroke-linecap="round"/>
<path d="M455.3 54.5806L1 217.591" stroke="#393E3F" stroke-width="0.26" stroke-miterlimit="10" stroke-linecap="round"/>
<path d="M165.93 252.646L1 255.982" stroke="#393E3F" stroke-width="0.26" stroke-miterlimit="10" stroke-linecap="round"/>
<path d="M137.884 252.646L491.495 258.826" stroke="#393E3F" stroke-width="0.26" stroke-miterlimit="10" stroke-linecap="round"/>
<path d="M146.236 357.031L491.495 269.664" stroke="#393E3F" stroke-width="0.26" stroke-miterlimit="10" stroke-linecap="round"/>
<g opacity="0.5">
<path d="M423.978 40.3716L491.495 160.802" stroke="#393E3F" stroke-width="0.15" stroke-miterlimit="10" stroke-linecap="round"/>
<path d="M491.495 298.274L287.537 490.039" stroke="#393E3F" stroke-width="0.15" stroke-miterlimit="10" stroke-linecap="round"/>
<path d="M491.495 290.618L287.537 454.54" stroke="#393E3F" stroke-width="0.15" stroke-miterlimit="10" stroke-linecap="round"/>
<path d="M1 192.353L155.058 134.808" stroke="#393E3F" stroke-width="0.15" stroke-miterlimit="10" stroke-linecap="round"/>
<path d="M423.977 214.399L137.884 134.808" stroke="#393E3F" stroke-width="0.15" stroke-miterlimit="10" stroke-linecap="round"/>
<path d="M1 302.103L165.93 353.263" stroke="#393E3F" stroke-width="0.15" stroke-miterlimit="10" stroke-linecap="round"/>
<path d="M313.291 454.54L1 316.72" stroke="#393E3F" stroke-width="0.15" stroke-miterlimit="10" stroke-linecap="round"/>
<path d="M313.291 490.039L1 331.337" stroke="#393E3F" stroke-width="0.15" stroke-miterlimit="10" stroke-linecap="round"/>
<path d="M301.471 194.226L491.495 233.433" stroke="#393E3F" stroke-width="0.15" stroke-miterlimit="10" stroke-linecap="round"/>
<path d="M321.884 195.605L1 238.761" stroke="#393E3F" stroke-width="0.15" stroke-miterlimit="10" stroke-linecap="round"/>
<path d="M1 299.091L330.861 389.111" stroke="#393E3F" stroke-width="0.15" stroke-miterlimit="10" stroke-linecap="round"/>
<path d="M305.994 389.111L491.494 280.057" stroke="#393E3F" stroke-width="0.15" stroke-miterlimit="10" stroke-linecap="round"/>
<path d="M455.3 50.813L1 213.823" stroke="#393E3F" stroke-width="0.15" stroke-miterlimit="10" stroke-linecap="round"/>
<path d="M165.93 248.89L1 252.214" stroke="#393E3F" stroke-width="0.15" stroke-miterlimit="10" stroke-linecap="round"/>
<path d="M137.884 248.89L491.495 255.071" stroke="#393E3F" stroke-width="0.15" stroke-miterlimit="10" stroke-linecap="round"/>
<path d="M146.236 353.263L491.495 265.908" stroke="#393E3F" stroke-width="0.15" stroke-miterlimit="10" stroke-linecap="round"/>
</g>
<g opacity="0.5">
<path d="M423.978 47.0205L491.495 167.439" stroke="#393E3F" stroke-width="0.15" stroke-miterlimit="10" stroke-linecap="round"/>
<path d="M491.495 304.923L287.537 496.688" stroke="#393E3F" stroke-width="0.15" stroke-miterlimit="10" stroke-linecap="round"/>
<path d="M491.495 297.267L287.537 461.189" stroke="#393E3F" stroke-width="0.15" stroke-miterlimit="10" stroke-linecap="round"/>
<path d="M1 199.002L155.058 141.457" stroke="#393E3F" stroke-width="0.15" stroke-miterlimit="10" stroke-linecap="round"/>
<path d="M423.977 221.048L137.884 141.457" stroke="#393E3F" stroke-width="0.15" stroke-miterlimit="10" stroke-linecap="round"/>
<path d="M1 308.751L165.93 359.911" stroke="#393E3F" stroke-width="0.15" stroke-miterlimit="10" stroke-linecap="round"/>
<path d="M313.291 461.189L1 323.369" stroke="#393E3F" stroke-width="0.15" stroke-miterlimit="10" stroke-linecap="round"/>
<path d="M313.291 496.688L1 337.986" stroke="#393E3F" stroke-width="0.15" stroke-miterlimit="10" stroke-linecap="round"/>
<path d="M301.471 200.874L491.495 240.081" stroke="#393E3F" stroke-width="0.15" stroke-miterlimit="10" stroke-linecap="round"/>
<path d="M321.884 202.254L1 245.41" stroke="#393E3F" stroke-width="0.15" stroke-miterlimit="10" stroke-linecap="round"/>
<path d="M1 305.727L330.861 395.759" stroke="#393E3F" stroke-width="0.15" stroke-miterlimit="10" stroke-linecap="round"/>
<path d="M305.994 395.759L491.494 286.706" stroke="#393E3F" stroke-width="0.15" stroke-miterlimit="10" stroke-linecap="round"/>
<path d="M455.3 57.4614L1 220.472" stroke="#393E3F" stroke-width="0.15" stroke-miterlimit="10" stroke-linecap="round"/>
<path d="M165.93 255.539L1 258.863" stroke="#393E3F" stroke-width="0.15" stroke-miterlimit="10" stroke-linecap="round"/>
<path d="M137.884 255.539L491.495 261.719" stroke="#393E3F" stroke-width="0.15" stroke-miterlimit="10" stroke-linecap="round"/>
<path d="M146.236 359.912L491.495 272.557" stroke="#393E3F" stroke-width="0.15" stroke-miterlimit="10" stroke-linecap="round"/>
</g>
<path d="M6.41211 194.441V337.866L10.9485 340.146V192.749L6.41211 194.441Z" stroke="#393E3F" stroke-width="0.26" stroke-miterlimit="10" stroke-linecap="round"/>
<path d="M10.9492 192.749L15.8937 193.793V338.67L10.9492 340.146" stroke="#393E3F" stroke-width="0.26" stroke-miterlimit="10" stroke-linecap="round"/>
<path d="M157.146 354.271V143.929L167.275 146.749V351.703L157.146 354.271Z" stroke="#393E3F" stroke-width="0.26" stroke-miterlimit="10" stroke-linecap="round"/>
<path d="M157.146 143.929L147.401 146.929V351.259L157.146 354.271V143.929Z" stroke="#393E3F" stroke-width="0.26" stroke-miterlimit="10" stroke-linecap="round"/>
<path d="M204.718 215.863V358.447L212.074 360.452V214.903L204.718 215.863Z" stroke="#393E3F" stroke-width="0.26" stroke-miterlimit="10" stroke-linecap="round"/>
<path d="M212.074 214.903L219.563 216.067V357.751L212.074 360.452" stroke="#393E3F" stroke-width="0.26" stroke-miterlimit="10" stroke-linecap="round"/>
<path d="M313.879 388.234V200.525L303.45 201.845V385.39L313.879 388.234Z" stroke="#393E3F" stroke-width="0.26" stroke-miterlimit="10" stroke-linecap="round"/>
<path d="M313.88 200.525L323.349 202.494V382.665L313.88 388.234V200.525Z" stroke="#393E3F" stroke-width="0.26" stroke-miterlimit="10" stroke-linecap="round"/>
<path d="M434.094 62.1895V355.999L439.746 350.683V72.2703L434.094 62.1895Z" stroke="#393E3F" stroke-width="0.51" stroke-miterlimit="10" stroke-linecap="round"/>
<path d="M434.094 62.1895L425.261 65.3577V354.787L434.094 355.999V62.1895Z" stroke="#393E3F" stroke-width="0.51" stroke-miterlimit="10" stroke-linecap="round"/>
<path d="M482.855 149.15V310.156L479.471 313.348V143.101L482.855 149.15Z" stroke="#393E3F" stroke-width="0.26" stroke-miterlimit="10" stroke-linecap="round"/>
<path d="M479.47 143.101L474.153 144.901V313.348H479.47" stroke="#393E3F" stroke-width="0.26" stroke-miterlimit="10" stroke-linecap="round"/>
<path d="M272.104 120.311V333.714L279.749 335.094V117.575L272.104 120.311Z" stroke="#393E3F" stroke-width="0.26" stroke-miterlimit="10" stroke-linecap="round"/>
<path d="M279.749 117.575L287.538 121.751V331.446L279.749 335.094V117.575Z" stroke="#393E3F" stroke-width="0.26" stroke-miterlimit="10" stroke-linecap="round"/>
<path d="M441.523 357.031L1 296.402" stroke="#393E3F" stroke-width="0.26" stroke-miterlimit="10" stroke-linecap="round"/>
<path d="M474.153 344.49L401.127 336.954V218.443" stroke="#393E3F" stroke-width="0.51" stroke-miterlimit="10" stroke-linecap="round"/>
<path d="M391.983 94.8921L310.268 122.026" stroke="#393E3F" stroke-width="0.51" stroke-miterlimit="10" stroke-linecap="round"/>
<path d="M315.416 116.47V200.526" stroke="#393E3F" stroke-width="0.51" stroke-miterlimit="10" stroke-linecap="round"/>
<path d="M315.416 120.322L332.122 127.607L388.034 110.206" stroke="#393E3F" stroke-width="0.51" stroke-miterlimit="10" stroke-linecap="round"/>
<path d="M332.121 127.607V203.334" stroke="#393E3F" stroke-width="0.51" stroke-miterlimit="10" stroke-linecap="round"/>
<path d="M338.037 205.506V131.784L388.034 116.47" stroke="#393E3F" stroke-width="0.51" stroke-miterlimit="10" stroke-linecap="round"/>
<path d="M338.037 131.784L342.213 134.22L388.034 120.299" stroke="#393E3F" stroke-width="0.51" stroke-miterlimit="10" stroke-linecap="round"/>
<path d="M342.215 134.22V206.394" stroke="#393E3F" stroke-width="0.51" stroke-miterlimit="10" stroke-linecap="round"/>
<path d="M368.568 122.435V211.818" stroke="#393E3F" stroke-width="0.51" stroke-miterlimit="10" stroke-linecap="round"/>
<path d="M372.385 212.611V121.259L375.493 124.103V213.247" stroke="#393E3F" stroke-width="0.51" stroke-linecap="round" stroke-linejoin="round"/>
<path d="M447.416 122.794V200.525L469.102 211.542V151.333L447.416 122.794Z" stroke="#393E3F" stroke-width="0.51" stroke-miterlimit="10" stroke-linecap="round"/>
<path d="M469.102 151.333H462.957L447.416 135.096" stroke="#393E3F" stroke-width="0.51" stroke-miterlimit="10" stroke-linecap="round"/>
<path d="M462.956 151.333V208.231" stroke="#393E3F" stroke-width="0.51" stroke-miterlimit="10" stroke-linecap="round"/>
<path d="M460.869 207.355V152.726L447.416 138.577" stroke="#393E3F" stroke-width="0.51" stroke-miterlimit="10" stroke-linecap="round"/>
<path d="M460.869 152.725H459.189L447.416 141.42" stroke="#393E3F" stroke-width="0.51" stroke-miterlimit="10" stroke-linecap="round"/>
<path d="M459.188 152.725V206.502" stroke="#393E3F" stroke-width="0.51" stroke-miterlimit="10" stroke-linecap="round"/>
<path d="M293.695 383.134V226.34L225.349 233.468V364.076L242.87 357.031V231.644" stroke="#393E3F" stroke-width="0.51" stroke-miterlimit="10" stroke-linecap="round"/>
<path d="M242.869 357.031L293.694 370.136" stroke="#393E3F" stroke-width="0.51" stroke-miterlimit="10" stroke-linecap="round"/>
<path d="M265.732 244.149L248.57 245.542V277.38H265.732V244.149Z" stroke="#393E3F" stroke-width="0.51" stroke-miterlimit="10" stroke-linecap="round"/>
<path d="M269.452 244.15V277.381H290.562V242.518L269.452 244.15Z" stroke="#393E3F" stroke-width="0.51" stroke-miterlimit="10" stroke-linecap="round"/>
<path d="M248.57 281.497H265.732V312.124L248.57 310.972V281.497Z" stroke="#393E3F" stroke-width="0.51" stroke-miterlimit="10" stroke-linecap="round"/>
<path d="M269.452 281.497V312.124L290.562 313.348V281.965L269.452 281.497Z" stroke="#393E3F" stroke-width="0.51" stroke-miterlimit="10" stroke-linecap="round"/>
<path d="M334.065 226.34V256.078L393.711 257.123V233.816L334.065 226.34Z" stroke="#393E3F" stroke-width="0.51" stroke-miterlimit="10" stroke-linecap="round"/>
<path d="M387.026 257.003V232.977" stroke="#393E3F" stroke-width="0.51" stroke-miterlimit="10" stroke-linecap="round"/>
<path d="M361.812 229.82V256.571" stroke="#393E3F" stroke-width="0.51" stroke-miterlimit="10" stroke-linecap="round"/>
<path d="M366.696 230.432V256.57" stroke="#393E3F" stroke-width="0.51" stroke-miterlimit="10" stroke-linecap="round"/>
<path d="M358.308 229.82V256.523" stroke="#393E3F" stroke-width="0.51" stroke-miterlimit="10" stroke-linecap="round"/>
<path d="M447.416 240.429V258.059L469.102 258.443V243.501L447.416 240.429Z" stroke="#393E3F" stroke-width="0.51" stroke-miterlimit="10" stroke-linecap="round"/>
<path d="M465.777 243.033V258.383" stroke="#393E3F" stroke-width="0.51" stroke-miterlimit="10" stroke-linecap="round"/>
<path d="M458.252 241.965V258.251" stroke="#393E3F" stroke-width="0.51" stroke-miterlimit="10" stroke-linecap="round"/>
<path d="M455.3 241.725V258.203" stroke="#393E3F" stroke-width="0.51" stroke-miterlimit="10" stroke-linecap="round"/>
<path d="M453.439 241.281V258.166" stroke="#393E3F" stroke-width="0.51" stroke-miterlimit="10" stroke-linecap="round"/>
<path d="M6.41211 191.009V322.876L296.67 450.964L434.094 340.362L401.127 336.954L313.879 388.234V200.526L173.887 219.271V350.035" stroke="#393E3F" stroke-width="1.03" stroke-miterlimit="10" stroke-linecap="round"/>
<path d="M434.094 54.5806V225.356" stroke="#393E3F" stroke-width="1.03" stroke-miterlimit="10" stroke-linecap="round"/>
<path d="M147.725 141.312V253.03H157.145V354.271L173.887 350.035L225.347 364.076" stroke="#393E3F" stroke-width="1.03" stroke-miterlimit="10" stroke-linecap="round"/>
<path d="M51.8847 321.641L15.8936 326.717V255.983L51.2007 254.963L51.8847 321.641ZM51.8847 321.641L157.146 354.272" stroke="#393E3F" stroke-width="1.03" stroke-miterlimit="10" stroke-linecap="round"/>
<path d="M6.41211 322.876V337.866L296.574 485.311V450.964" stroke="#393E3F" stroke-width="1.03" stroke-miterlimit="10" stroke-linecap="round"/>
<path d="M124.083 474.714C141.19 474.714 155.058 469.4 155.058 462.845C155.058 456.29 141.19 450.976 124.083 450.976C106.976 450.976 93.1084 456.29 93.1084 462.845C93.1084 469.4 106.976 474.714 124.083 474.714Z" stroke="#393E3F" stroke-width="0.51" stroke-miterlimit="10" stroke-linecap="round"/>
<path d="M102 426.529C102 429.806 95.0638 432.47 86.507 432.47C77.9503 432.47 71.0137 429.818 71.0137 426.529C71.0137 423.241 77.9503 420.589 86.507 420.589C95.0638 420.589 102 423.241 102 426.529Z" stroke="#393E3F" stroke-width="0.51" stroke-miterlimit="10" stroke-linecap="round"/>
<path d="M447.415 403.86C455.972 403.86 462.909 401.2 462.909 397.919C462.909 394.638 455.972 391.979 447.415 391.979C438.858 391.979 431.922 394.638 431.922 397.919C431.922 401.2 438.858 403.86 447.415 403.86Z" stroke="#393E3F" stroke-width="0.51" stroke-miterlimit="10" stroke-linecap="round"/>
<path d="M434.982 426.529C434.982 429.806 428.045 432.47 419.488 432.47C410.932 432.47 403.995 429.818 403.995 426.529C403.995 423.241 410.932 420.589 419.488 420.589C428.045 420.589 434.982 423.241 434.982 426.529Z" stroke="#393E3F" stroke-width="0.51" stroke-miterlimit="10" stroke-linecap="round"/>
<path d="M387.026 468.785C395.582 468.785 402.519 466.126 402.519 462.845C402.519 459.564 395.582 456.904 387.026 456.904C378.469 456.904 371.532 459.564 371.532 462.845C371.532 466.126 378.469 468.785 387.026 468.785Z" stroke="#393E3F" stroke-width="0.51" stroke-miterlimit="10" stroke-linecap="round"/>
<path d="M296.574 485.311L482.854 310.155V149.149L434.094 62.1895L272.103 120.311V175.911L147.725 141.312L6.41211 194.441" stroke="#393E3F" stroke-width="1.03" stroke-miterlimit="10" stroke-linecap="round"/>
<path d="M272.104 175.912V206.082" stroke="#393E3F" stroke-width="1.03" stroke-miterlimit="10" stroke-linecap="round"/>
<path d="M434.094 340.362V225.355" stroke="#393E3F" stroke-width="1.03" stroke-miterlimit="10" stroke-linecap="round"/>
<path d="M313.88 200.525L400.624 218.443L401.128 336.953" stroke="#393E3F" stroke-width="1.03" stroke-miterlimit="10" stroke-linecap="round"/>
<path d="M175.016 167.955V200.526L262.251 217.591V190.397L175.016 167.955Z" stroke="#393E3F" stroke-width="0.51" stroke-miterlimit="10" stroke-linecap="round"/>
<path d="M262.251 190.396L255.219 192.161L255.579 216.283" stroke="#393E3F" stroke-width="0.51" stroke-miterlimit="10" stroke-linecap="round"/>
<path d="M255.219 192.161L175.016 172.215" stroke="#393E3F" stroke-width="0.51" stroke-miterlimit="10" stroke-linecap="round"/>
<path d="M252.806 215.743V193.685L175.016 174.543" stroke="#393E3F" stroke-width="0.51" stroke-miterlimit="10" stroke-linecap="round"/>
<path d="M252.806 193.685H250.886V215.371" stroke="#393E3F" stroke-width="0.51" stroke-miterlimit="10" stroke-linecap="round"/>
<path d="M234.685 189.221V212.191" stroke="#393E3F" stroke-width="0.51" stroke-miterlimit="10" stroke-linecap="round"/>
<path d="M231.984 188.561V211.459" stroke="#393E3F" stroke-width="0.51" stroke-miterlimit="10" stroke-linecap="round"/>
<path d="M230.124 188.561V211.387" stroke="#393E3F" stroke-width="0.51" stroke-miterlimit="10" stroke-linecap="round"/>
<path d="M204.718 182.188V206.334" stroke="#393E3F" stroke-width="0.51" stroke-miterlimit="10" stroke-linecap="round"/>
<path d="M200.998 205.602V180.928" stroke="#393E3F" stroke-width="0.51" stroke-miterlimit="10" stroke-linecap="round"/>
<path d="M198.813 180.388V205.086" stroke="#393E3F" stroke-width="0.51" stroke-miterlimit="10" stroke-linecap="round"/>
<path d="M147.725 253.03L51.2002 254.962" stroke="#393E3F" stroke-width="1.03" stroke-miterlimit="10" stroke-linecap="round"/>
<path d="M122.114 174.135V226.232" stroke="#393E3F" stroke-width="0.51" stroke-miterlimit="10" stroke-linecap="round"/>
<path d="M83.459 187.997V231.428" stroke="#393E3F" stroke-width="0.51" stroke-miterlimit="10" stroke-linecap="round"/>
<path d="M59.9971 196.421V234.585" stroke="#393E3F" stroke-width="0.51" stroke-miterlimit="10" stroke-linecap="round"/>
<path d="M28.8428 207.594V239.733" stroke="#393E3F" stroke-width="0.51" stroke-miterlimit="10" stroke-linecap="round"/>
<path d="M28.8428 207.594L33.4752 208.242V238.149" stroke="#393E3F" stroke-width="0.51" stroke-miterlimit="10" stroke-linecap="round"/>
<path d="M33.4746 208.243L59.9969 199.71" stroke="#393E3F" stroke-width="0.51" stroke-miterlimit="10" stroke-linecap="round"/>
<path d="M83.459 187.997L89.7475 188.753V230.456" stroke="#393E3F" stroke-width="0.51" stroke-miterlimit="10" stroke-linecap="round"/>
<path d="M89.748 188.753L122.115 177.616" stroke="#393E3F" stroke-width="0.51" stroke-miterlimit="10" stroke-linecap="round"/>
<path d="M91.7158 230.324V189.965L122.115 179.764" stroke="#393E3F" stroke-width="0.51" stroke-miterlimit="10" stroke-linecap="round"/>
<path d="M108.998 184.156V227.996" stroke="#393E3F" stroke-width="0.51" stroke-miterlimit="10" stroke-linecap="round"/>
<path d="M111.506 227.66V183.316L113.294 184.156V227.42" stroke="#393E3F" stroke-width="0.51" stroke-miterlimit="10" stroke-linecap="round"/>
<path d="M91.7158 189.965L93.1079 190.553V230.132" stroke="#393E3F" stroke-width="0.51" stroke-miterlimit="10" stroke-linecap="round"/>
<path d="M93.1084 190.553L108.998 185.44" stroke="#393E3F" stroke-width="0.51" stroke-miterlimit="10" stroke-linecap="round"/>
<path d="M113.294 184.157L122.115 181.156" stroke="#393E3F" stroke-width="0.51" stroke-miterlimit="10" stroke-linecap="round"/>
<path d="M35.1182 237.933V209.227L59.9963 201.798" stroke="#393E3F" stroke-width="0.51" stroke-miterlimit="10" stroke-linecap="round"/>
<path d="M47.5635 205.518V236.253" stroke="#393E3F" stroke-width="0.51" stroke-miterlimit="10" stroke-linecap="round"/>
<path d="M49.208 236.037V205.014L50.4201 205.518V235.869" stroke="#393E3F" stroke-width="0.51" stroke-miterlimit="10" stroke-linecap="round"/>
<path d="M35.1182 209.226L36.2343 209.634V237.777" stroke="#393E3F" stroke-width="0.51" stroke-miterlimit="10" stroke-linecap="round"/>
<path d="M36.2354 209.635L47.5643 206.322" stroke="#393E3F" stroke-width="0.51" stroke-miterlimit="10" stroke-linecap="round"/>
<path d="M50.4199 205.518L59.9968 202.674" stroke="#393E3F" stroke-width="0.51" stroke-miterlimit="10" stroke-linecap="round"/>
<path d="M10.9492 152.725V385.63" stroke="#393E3F" stroke-width="0.15" stroke-miterlimit="10" stroke-linecap="round"/>
<path d="M147.401 109.174V456.568" stroke="#393E3F" stroke-width="0.15" stroke-miterlimit="10" stroke-linecap="round"/>
<path d="M157.146 113.002V466.661" stroke="#393E3F" stroke-width="0.15" stroke-miterlimit="10" stroke-linecap="round"/>
<path d="M271.695 105.693V500" stroke="#393E3F" stroke-width="0.15" stroke-miterlimit="10" stroke-linecap="round"/>
<path d="M434.094 36.2793V392.279" stroke="#393E3F" stroke-width="0.15" stroke-miterlimit="10" stroke-linecap="round"/>
<path d="M212.074 81.6313V377.709" stroke="#393E3F" stroke-width="0.15" stroke-miterlimit="10" stroke-linecap="round"/>
<path d="M482.854 115.834V345.438" stroke="#393E3F" stroke-width="0.15" stroke-miterlimit="10" stroke-linecap="round"/>
<path d="M314.216 172.875V402.479" stroke="#393E3F" stroke-width="0.15" stroke-miterlimit="10" stroke-linecap="round"/>
<path d="M1 179.788L453.44 0" stroke="#393E3F" stroke-width="0.15" stroke-miterlimit="10" stroke-linecap="round"/>
<path d="M491.495 143.101L409.24 0" stroke="#393E3F" stroke-width="0.15" stroke-miterlimit="10" stroke-linecap="round"/>
<path d="M388.034 92.6362V215.551" stroke="#393E3F" stroke-width="0.51" stroke-miterlimit="10" stroke-linecap="round"/>
<path d="M60.8613 261.719H147.401V316.72L60.8613 304.635V261.719Z" stroke="#393E3F" stroke-width="0.51" stroke-miterlimit="10" stroke-linecap="round"/>
<path d="M66.3458 261.719V303.771L60.8613 304.635" stroke="#393E3F" stroke-width="0.51" stroke-miterlimit="10" stroke-linecap="round"/>
<path d="M66.3457 303.771L147.401 314.452" stroke="#393E3F" stroke-width="0.51" stroke-miterlimit="10" stroke-linecap="round"/>
<path d="M68.9736 261.719V302.103L147.401 311.26" stroke="#393E3F" stroke-width="0.51" stroke-miterlimit="10" stroke-linecap="round"/>
<path d="M104.125 261.719V306.207" stroke="#393E3F" stroke-width="0.51" stroke-miterlimit="10" stroke-linecap="round"/>
<path d="M110.629 306.675V261.719" stroke="#393E3F" stroke-width="0.51" stroke-miterlimit="10" stroke-linecap="round"/>
<path d="M108.193 261.719V306.675" stroke="#393E3F" stroke-width="0.51" stroke-miterlimit="10" stroke-linecap="round"/>
<path d="M68.9736 302.103H70.9538V261.719" stroke="#393E3F" stroke-width="0.51" stroke-miterlimit="10" stroke-linecap="round"/>
</svg>
