<svg width="906" height="694" viewBox="0 0 906 694" fill="none" xmlns="http://www.w3.org/2000/svg">
<path d="M244.192 693.819C166.135 693.88 88.9613 693.944 11.7879 694C0.0115957 694.008 -0.0530203 693.991 0.00695752 682.308C0.740812 539.425 1.51091 396.542 2.23867 253.658C2.80883 141.728 3.35742 29.7972 3.85665 -82.1337C3.95238 -103.595 3.72472 -125.058 3.77245 -146.521C3.78006 -149.926 3.77245 -153.5 3.77245 -158C11.9567 -152.419 22.2797 -146.885 30.2982 -141.216C145.488 -59.7693 260.655 21.7096 375.824 103.184C424.631 137.712 473.512 172.136 522.144 206.909C529.001 211.811 533.696 212.438 540.225 206.206C554.064 192.997 568.859 180.797 583 167.896C591.182 160.431 590.739 157.333 581.604 150.806C433.032 44.6641 284.456 -61.4724 135.875 -167.602C93.9381 -197.557 52.0335 -227.558 9.96567 -257.328C5.05667 -260.802 3.22166 -264.658 3.26804 -270.558C3.49258 -299.136 3.34129 -327.716 3.35833 -356.296C3.36529 -367.94 3.4058 -368.013 16.0493 -367.999C189.247 -367.807 362.446 -367.575 535.644 -367.401C562.417 -367.375 589.25 -368.344 615.411 -360.895C714.799 -332.596 782.787 -270.652 817.136 -172.619C829.891 -136.214 834.051 -98.4501 831.071 -60.4109C825.562 9.88831 797.965 70.7617 748.289 121.264C745.461 124.139 741.962 126.57 740.386 131.444C751.05 141.695 762.808 150.915 774.972 159.615C835.947 203.226 877.181 260.832 896.33 333.414C907.971 377.54 909.069 422.384 899.799 467.216C883.048 548.229 839.158 611.308 771.416 657.714C752.323 670.794 731.537 681.628 709.556 689.67C703.01 692.065 696.301 692.175 689.525 692.182C625.607 692.243 561.678 691.606 497.772 692.518C413.539 693.72 329.306 693.22 244.192 693.819ZM405.907 590.218C491.033 590.231 576.159 590.246 661.285 590.24C663.928 590.239 666.7 590.487 669.193 589.811C696.409 582.436 720.778 569.614 740.77 549.636C763.865 526.558 779.074 498.309 791.015 468.245C798.366 449.737 801.679 430.165 801.753 410.439C801.874 378.228 793.974 347.507 780.677 318.234C771.707 298.485 760.664 279.724 743.55 266.167C725.114 251.563 705.138 238.915 686.028 225.143C681.351 221.772 678.147 221.894 673.836 225.863C660.84 237.829 647.459 249.377 634.199 261.055C583.146 306.012 532.083 350.957 481.022 395.906C423.552 446.497 366.077 497.082 308.612 547.68C293.669 560.838 278.76 574.034 263.835 587.213C264.016 588.214 264.197 589.215 264.378 590.216C310.965 590.216 357.552 590.216 405.907 590.218ZM384.435 -119.623C469.704 -57.6248 555.022 4.30701 640.14 66.5127C646.133 70.893 649.982 70.4224 655.499 66.0846C672.575 52.6572 686.537 36.7036 698.831 18.7791C723.351 -16.9692 735.515 -55.5292 731.825 -99.2809C727.397 -151.774 706.442 -195.78 666.374 -229.731C636.057 -255.42 602.044 -270.737 560.279 -270.393C438.662 -269.392 317.026 -270.717 195.398 -271.065C191.753 -271.075 186.831 -272.439 185.296 -267.892C183.866 -263.657 188.614 -262.149 191.271 -260.212C255.279 -213.542 319.351 -166.96 384.435 -119.623ZM323.367 189.11C253.565 139.797 183.763 90.485 113.962 41.1726C112.683 41.7577 111.404 42.3427 110.125 42.9278C110.055 223.897 107.781 404.857 108.875 586.242C114.96 585.216 117.358 581.567 120.359 578.906C171.695 533.388 222.994 487.828 274.275 442.247C330.838 391.972 387.396 341.692 443.901 291.351C454.081 282.281 453.895 281.394 442.688 273.471C403.257 245.598 363.832 217.716 323.367 189.11Z" fill="#E3E7F2" fill-opacity="0.04"/>
</svg>
