<svg width="645" height="450" viewBox="0 0 645 450" fill="none" xmlns="http://www.w3.org/2000/svg">
<path d="M39.6606 83.7695H7.01367V116.739H39.6606V83.7695Z" stroke="#393E3F" stroke-miterlimit="10"/>
<path d="M22.2966 93.0795C22.2966 96.093 19.8391 98.5505 16.8255 98.5505C13.812 98.5505 11.3545 96.111 11.3545 93.0795C11.3545 90.048 13.794 87.6084 16.8255 87.6084C19.857 87.6084 22.2966 90.048 22.2966 93.0795Z" stroke="#393E3F" stroke-miterlimit="10"/>
<path d="M19.4981 93.0796C19.4981 94.5505 18.3142 95.7344 16.8433 95.7344C15.3724 95.7344 14.1885 94.5505 14.1885 93.0796C14.1885 91.6087 15.3724 90.4248 16.8433 90.4248C18.3142 90.4248 19.4981 91.6087 19.4981 93.0796Z" stroke="#393E3F" stroke-miterlimit="10"/>
<path d="M22.2966 107.411C22.2966 110.425 19.8391 112.883 16.8255 112.883C13.812 112.883 11.3545 110.425 11.3545 107.411C11.3545 104.398 13.794 101.94 16.8255 101.94C19.857 101.94 22.2966 104.38 22.2966 107.411Z" stroke="#393E3F" stroke-miterlimit="10"/>
<path d="M19.4981 107.412C19.4981 108.883 18.3142 110.066 16.8433 110.066C15.3724 110.066 14.1885 108.883 14.1885 107.412C14.1885 105.941 15.3724 104.757 16.8433 104.757C18.3142 104.757 19.4981 105.941 19.4981 107.412Z" stroke="#393E3F" stroke-miterlimit="10"/>
<path d="M30.9779 98.5505C33.9995 98.5505 36.4489 96.101 36.4489 93.0795C36.4489 90.0579 33.9995 87.6084 30.9779 87.6084C27.9563 87.6084 25.5068 90.0579 25.5068 93.0795C25.5068 96.101 27.9563 98.5505 30.9779 98.5505Z" stroke="#393E3F" stroke-miterlimit="10"/>
<path d="M33.6319 93.0796C33.6319 94.5505 32.448 95.7344 30.9771 95.7344C29.5062 95.7344 28.3223 94.5505 28.3223 93.0796C28.3223 91.6087 29.5062 90.4248 30.9771 90.4248C32.448 90.4248 33.6319 91.6087 33.6319 93.0796Z" stroke="#393E3F" stroke-miterlimit="10"/>
<path d="M36.4323 107.411C36.4323 110.425 33.9928 112.883 30.9613 112.883C27.9298 112.883 25.4902 110.425 25.4902 107.411C25.4902 104.398 27.9298 101.94 30.9613 101.94C33.9928 101.94 36.4323 104.38 36.4323 107.411Z" stroke="#393E3F" stroke-miterlimit="10"/>
<path d="M33.6319 107.412C33.6319 108.883 32.448 110.066 30.9771 110.066C29.5062 110.066 28.3223 108.883 28.3223 107.412C28.3223 105.941 29.5062 104.757 30.9771 104.757C32.448 104.757 33.6319 105.941 33.6319 107.412Z" stroke="#393E3F" stroke-miterlimit="10"/>
<path d="M229.533 118.139V322.056" stroke="#393E3F" stroke-width="3" stroke-miterlimit="10"/>
<path d="M433.684 291.795V446.348" stroke="#393E3F" stroke-width="3" stroke-miterlimit="10"/>
<path d="M640.668 231.094V141.835" stroke="#393E3F" stroke-width="3" stroke-miterlimit="10"/>
<path d="M640.668 312.55V269.983" stroke="#393E3F" stroke-width="3" stroke-miterlimit="10"/>
<path d="M370.596 446.348H640.668V351.438" stroke="#393E3F" stroke-width="3" stroke-miterlimit="10"/>
<path d="M188.061 446.348H291.975" stroke="#393E3F" stroke-width="3" stroke-miterlimit="10"/>
<path d="M3.91016 398.848V446.347H149.189" stroke="#393E3F" stroke-width="3" stroke-miterlimit="10"/>
<path d="M3.91016 340.031V359.96" stroke="#393E3F" stroke-width="3" stroke-miterlimit="10"/>
<path d="M3.91016 220.098V301.141" stroke="#393E3F" stroke-width="3" stroke-miterlimit="10"/>
<path d="M3.91016 161.279V181.208" stroke="#393E3F" stroke-width="3" stroke-miterlimit="10"/>
<path d="M64.576 38.1182L55.9838 46.7104L56.1273 81.9583H3.91016V122.39" stroke="#393E3F" stroke-width="3" stroke-miterlimit="10"/>
<path d="M116.722 4.44824H98.2459L87.1064 15.5877" stroke="#393E3F" stroke-width="3" stroke-miterlimit="10"/>
<path d="M185.045 15.5877L173.888 4.44824H155.609" stroke="#393E3F" stroke-width="3" stroke-miterlimit="10"/>
<path d="M267.921 118.139H216.17V46.7104L207.578 38.1182" stroke="#393E3F" stroke-width="3" stroke-miterlimit="10"/>
<path d="M346.989 118.139H306.809" stroke="#393E3F" stroke-width="3" stroke-miterlimit="10"/>
<path d="M479.604 78.4062H436.428V118.139H385.879" stroke="#393E3F" stroke-width="3" stroke-miterlimit="10"/>
<path d="M557.903 78.4062H518.493" stroke="#393E3F" stroke-width="3" stroke-miterlimit="10"/>
<path d="M640.667 102.945V78.4062H596.791" stroke="#393E3F" stroke-width="3" stroke-miterlimit="10"/>
<path d="M643.791 231.094H637.549V269.983H643.791V231.094Z" stroke="#393E3F" stroke-miterlimit="10"/>
<path d="M643.791 312.549H637.549V351.438H643.791V312.549Z" stroke="#393E3F" stroke-miterlimit="10"/>
<path d="M643.791 102.945H637.549V141.835H643.791V102.945Z" stroke="#393E3F" stroke-miterlimit="10"/>
<path d="M596.792 75.2852H557.902V81.5275H596.792V75.2852Z" stroke="#393E3F" stroke-miterlimit="10"/>
<path d="M518.493 75.2852H479.604V81.5275H518.493V75.2852Z" stroke="#393E3F" stroke-miterlimit="10"/>
<path d="M385.879 115.018H346.989V121.26H385.879V115.018Z" stroke="#393E3F" stroke-miterlimit="10"/>
<path d="M306.809 115.018H267.92V121.26H306.809V115.018Z" stroke="#393E3F" stroke-miterlimit="10"/>
<path d="M155.61 1.32715H116.721V7.56952H155.61V1.32715Z" stroke="#393E3F" stroke-miterlimit="10"/>
<path d="M7.05 122.391H0.807617V161.28H7.05V122.391Z" stroke="#393E3F" stroke-miterlimit="10"/>
<path d="M7.05 181.209H0.807617V220.098H7.05V181.209Z" stroke="#393E3F" stroke-miterlimit="10"/>
<path d="M7.05 301.141H0.807617V340.03H7.05V301.141Z" stroke="#393E3F" stroke-miterlimit="10"/>
<path d="M7.05 359.959H0.807617V398.848H7.05V359.959Z" stroke="#393E3F" stroke-miterlimit="10"/>
<path d="M188.079 443.227H149.189V449.469H188.079V443.227Z" stroke="#393E3F" stroke-miterlimit="10"/>
<path d="M187.021 13.5352L182.607 17.9492L205.147 40.4887L209.561 36.0746L187.021 13.5352Z" stroke="#393E3F" stroke-miterlimit="10"/>
<path d="M84.7992 13.566L62.2598 36.1055L66.6738 40.5195L89.2132 17.9801L84.7992 13.566Z" stroke="#393E3F" stroke-miterlimit="10"/>
<path d="M505.991 291.203C505.991 291.203 506.386 327.76 466.025 330.146V291.203" stroke="#393E3F" stroke-miterlimit="10"/>
<path d="M464.268 291.203H465.164" stroke="#393E3F" stroke-linecap="round" stroke-linejoin="round"/>
<path d="M468.789 291.203H504.97" stroke="#393E3F" stroke-linecap="round" stroke-linejoin="round"/>
<path d="M506.779 291.203H507.676" stroke="#393E3F" stroke-linecap="round" stroke-linejoin="round"/>
<path d="M295.796 291.795C295.796 291.795 296.19 255.237 255.83 252.852V291.795" stroke="#393E3F" stroke-miterlimit="10"/>
<path d="M254.072 291.795H254.969" stroke="#393E3F" stroke-linecap="round" stroke-linejoin="round"/>
<path d="M258.591 291.795H294.771" stroke="#393E3F" stroke-linecap="round" stroke-linejoin="round"/>
<path d="M296.584 291.795H297.481" stroke="#393E3F" stroke-linecap="round" stroke-linejoin="round"/>
<path d="M150.282 238.664C150.282 238.664 149.888 202.106 190.248 199.721V238.664" stroke="#393E3F" stroke-miterlimit="10"/>
<path d="M192.024 238.664H191.127" stroke="#393E3F" stroke-linecap="round" stroke-linejoin="round"/>
<path d="M187.504 238.664H151.306" stroke="#393E3F" stroke-linecap="round" stroke-linejoin="round"/>
<path d="M149.493 238.664H148.596" stroke="#393E3F" stroke-linecap="round" stroke-linejoin="round"/>
<path d="M126.033 296.837C126.033 296.837 89.4756 296.442 87.0898 336.803H126.033" stroke="#393E3F" stroke-miterlimit="10"/>
<path d="M126.032 338.579V337.682" stroke="#393E3F" stroke-linecap="round" stroke-linejoin="round"/>
<path d="M126.032 334.057V297.858" stroke="#393E3F" stroke-linecap="round" stroke-linejoin="round"/>
<path d="M126.032 296.065V295.168" stroke="#393E3F" stroke-linecap="round" stroke-linejoin="round"/>
<path d="M150.857 359.924C150.857 359.924 150.462 396.481 190.822 398.867V359.924" stroke="#393E3F" stroke-miterlimit="10"/>
<path d="M192.598 359.924H191.701" stroke="#393E3F" stroke-linecap="round" stroke-linejoin="round"/>
<path d="M188.078 359.924H151.88" stroke="#393E3F" stroke-linecap="round" stroke-linejoin="round"/>
<path d="M150.086 359.924H149.189" stroke="#393E3F" stroke-linecap="round" stroke-linejoin="round"/>
<path d="M331.169 446.348C331.169 446.348 331.582 409.791 290.935 407.405V446.348" stroke="#393E3F" stroke-miterlimit="10"/>
<path d="M331.169 446.348C331.169 446.348 330.757 409.791 371.404 407.405V446.348" stroke="#393E3F" stroke-miterlimit="10"/>
<path d="M289.157 446.348H290.054" stroke="#393E3F" stroke-linecap="round" stroke-linejoin="round"/>
<path d="M293.625 446.348H372.121" stroke="#393E3F" stroke-linecap="round" stroke-linejoin="round"/>
<path d="M373.915 446.348H374.812" stroke="#393E3F" stroke-linecap="round" stroke-linejoin="round"/>
<path d="M465.988 291.795H294.628" stroke="#393E3F" stroke-width="3" stroke-miterlimit="10"/>
<path d="M637.853 291.795H504.88" stroke="#393E3F" stroke-width="3" stroke-miterlimit="10"/>
<path d="M255.74 291.795H229.533" stroke="#393E3F" stroke-width="3" stroke-miterlimit="10"/>
<path d="M229.534 239.417H189.766" stroke="#393E3F" stroke-width="3" stroke-miterlimit="10"/>
<path d="M150.875 239.417H3.91016" stroke="#393E3F" stroke-width="3" stroke-miterlimit="10"/>
<path d="M229.533 448.303V359.959H189.765" stroke="#393E3F" stroke-width="3" stroke-miterlimit="10"/>
<path d="M150.875 359.959H107.717V446.348" stroke="#393E3F" stroke-width="3" stroke-miterlimit="10"/>
<path d="M126.032 359.959V336.855" stroke="#393E3F" stroke-width="3" stroke-miterlimit="10"/>
<path d="M126.032 297.966V239.417" stroke="#393E3F" stroke-width="3" stroke-miterlimit="10"/>
<path d="M562.298 344.641H531.947C530.956 344.641 530.153 345.444 530.153 346.434V351.08C530.153 352.071 530.956 352.874 531.947 352.874H562.298C563.289 352.874 564.092 352.071 564.092 351.08V346.434C564.092 345.444 563.289 344.641 562.298 344.641Z" stroke="#393E3F" stroke-miterlimit="10"/>
<path d="M562.298 424.876H531.947C530.956 424.876 530.153 425.679 530.153 426.67V431.316C530.153 432.306 530.956 433.109 531.947 433.109H562.298C563.289 433.109 564.092 432.306 564.092 431.316V426.67C564.092 425.679 563.289 424.876 562.298 424.876Z" stroke="#393E3F" stroke-miterlimit="10"/>
<path d="M554.423 352.874H534.691C533.701 352.874 532.897 353.677 532.897 354.668V375.081C532.897 376.072 533.701 376.875 534.691 376.875H554.423C555.414 376.875 556.217 376.072 556.217 375.081V354.668C556.217 353.677 555.414 352.874 554.423 352.874Z" stroke="#393E3F" stroke-miterlimit="10"/>
<path d="M562.297 352.874H557.992C557.001 352.874 556.198 353.677 556.198 354.668V375.081C556.198 376.072 557.001 376.875 557.992 376.875H562.297C563.288 376.875 564.091 376.072 564.091 375.081V354.668C564.091 353.677 563.288 352.874 562.297 352.874Z" stroke="#393E3F" stroke-miterlimit="10"/>
<path d="M554.423 376.875H534.691C533.701 376.875 532.897 377.678 532.897 378.669V399.082C532.897 400.073 533.701 400.876 534.691 400.876H554.423C555.414 400.876 556.217 400.073 556.217 399.082V378.669C556.217 377.678 555.414 376.875 554.423 376.875Z" stroke="#393E3F" stroke-miterlimit="10"/>
<path d="M562.297 376.875H557.992C557.001 376.875 556.198 377.678 556.198 378.669V399.082C556.198 400.073 557.001 400.876 557.992 400.876H562.297C563.288 400.876 564.091 400.073 564.091 399.082V378.669C564.091 377.678 563.288 376.875 562.297 376.875Z" stroke="#393E3F" stroke-miterlimit="10"/>
<path d="M554.423 400.876H534.691C533.701 400.876 532.897 401.679 532.897 402.67V423.083C532.897 424.074 533.701 424.877 534.691 424.877H554.423C555.414 424.877 556.217 424.074 556.217 423.083V402.67C556.217 401.679 555.414 400.876 554.423 400.876Z" stroke="#393E3F" stroke-miterlimit="10"/>
<path d="M562.297 400.876H557.992C557.001 400.876 556.198 401.679 556.198 402.67V423.083C556.198 424.074 557.001 424.877 557.992 424.877H562.297C563.288 424.877 564.091 424.074 564.091 423.083V402.67C564.091 401.679 563.288 400.876 562.297 400.876Z" stroke="#393E3F" stroke-miterlimit="10"/>
<path d="M501.149 223.434H470.798C469.807 223.434 469.004 224.237 469.004 225.227V229.873C469.004 230.864 469.807 231.667 470.798 231.667H501.149C502.139 231.667 502.942 230.864 502.942 229.873V225.227C502.942 224.237 502.139 223.434 501.149 223.434Z" stroke="#393E3F" stroke-miterlimit="10"/>
<path d="M501.149 143.198H470.798C469.807 143.198 469.004 144.001 469.004 144.992V149.638C469.004 150.629 469.807 151.432 470.798 151.432H501.149C502.139 151.432 502.942 150.629 502.942 149.638V144.992C502.942 144.001 502.139 143.198 501.149 143.198Z" stroke="#393E3F" stroke-miterlimit="10"/>
<path d="M498.423 199.433H478.691C477.701 199.433 476.897 200.236 476.897 201.226V221.64C476.897 222.63 477.701 223.433 478.691 223.433H498.423C499.414 223.433 500.217 222.63 500.217 221.64V201.226C500.217 200.236 499.414 199.433 498.423 199.433Z" stroke="#393E3F" stroke-miterlimit="10"/>
<path d="M475.103 199.433H470.798C469.807 199.433 469.004 200.236 469.004 201.226V221.64C469.004 222.63 469.807 223.433 470.798 223.433H475.103C476.093 223.433 476.897 222.63 476.897 221.64V201.226C476.897 200.236 476.093 199.433 475.103 199.433Z" stroke="#393E3F" stroke-miterlimit="10"/>
<path d="M498.422 175.432H478.69C477.7 175.432 476.896 176.235 476.896 177.225V197.639C476.896 198.629 477.7 199.432 478.69 199.432H498.422C499.413 199.432 500.216 198.629 500.216 197.639V177.225C500.216 176.235 499.413 175.432 498.422 175.432Z" stroke="#393E3F" stroke-miterlimit="10"/>
<path d="M475.103 175.432H470.798C469.807 175.432 469.004 176.235 469.004 177.225V197.639C469.004 198.629 469.807 199.432 470.798 199.432H475.103C476.093 199.432 476.897 198.629 476.897 197.639V177.225C476.897 176.235 476.093 175.432 475.103 175.432Z" stroke="#393E3F" stroke-miterlimit="10"/>
<path d="M498.422 151.431H478.69C477.7 151.431 476.896 152.234 476.896 153.224V173.638C476.896 174.628 477.7 175.432 478.69 175.432H498.422C499.413 175.432 500.216 174.628 500.216 173.638V153.224C500.216 152.234 499.413 151.431 498.422 151.431Z" stroke="#393E3F" stroke-miterlimit="10"/>
<path d="M475.103 151.431H470.798C469.807 151.431 469.004 152.234 469.004 153.224V173.638C469.004 174.628 469.807 175.432 470.798 175.432H475.103C476.093 175.432 476.897 174.628 476.897 173.638V153.224C476.897 152.234 476.093 151.431 475.103 151.431Z" stroke="#393E3F" stroke-miterlimit="10"/>
<path d="M523.624 101.17H518.978C517.988 101.17 517.185 101.973 517.185 102.964V133.315C517.185 134.305 517.988 135.108 518.978 135.108H523.624C524.615 135.108 525.418 134.305 525.418 133.315V102.964C525.418 101.973 524.615 101.17 523.624 101.17Z" stroke="#393E3F" stroke-miterlimit="10"/>
<path d="M603.861 101.17H599.215C598.224 101.17 597.421 101.973 597.421 102.964V133.315C597.421 134.305 598.224 135.108 599.215 135.108H603.861C604.851 135.108 605.654 134.305 605.654 133.315V102.964C605.654 101.973 604.851 101.17 603.861 101.17Z" stroke="#393E3F" stroke-miterlimit="10"/>
<path d="M547.624 109.062H527.211C526.22 109.062 525.417 109.866 525.417 110.856V130.588C525.417 131.579 526.22 132.382 527.211 132.382H547.624C548.615 132.382 549.418 131.579 549.418 130.588V110.856C549.418 109.866 548.615 109.062 547.624 109.062Z" stroke="#393E3F" stroke-miterlimit="10"/>
<path d="M547.624 101.17H527.211C526.22 101.17 525.417 101.973 525.417 102.964V107.251C525.417 108.242 526.22 109.045 527.211 109.045H547.624C548.615 109.045 549.418 108.242 549.418 107.251V102.964C549.418 101.973 548.615 101.17 547.624 101.17Z" stroke="#393E3F" stroke-miterlimit="10"/>
<path d="M571.625 109.062H551.212C550.221 109.062 549.418 109.866 549.418 110.856V130.588C549.418 131.579 550.221 132.382 551.212 132.382H571.625C572.616 132.382 573.419 131.579 573.419 130.588V110.856C573.419 109.866 572.616 109.062 571.625 109.062Z" stroke="#393E3F" stroke-miterlimit="10"/>
<path d="M571.625 101.17H551.212C550.221 101.17 549.418 101.973 549.418 102.964V107.251C549.418 108.242 550.221 109.045 551.212 109.045H571.625C572.616 109.045 573.419 108.242 573.419 107.251V102.964C573.419 101.973 572.616 101.17 571.625 101.17Z" stroke="#393E3F" stroke-miterlimit="10"/>
<path d="M595.627 109.062H575.214C574.223 109.062 573.42 109.866 573.42 110.856V130.588C573.42 131.579 574.223 132.382 575.214 132.382H595.627C596.618 132.382 597.421 131.579 597.421 130.588V110.856C597.421 109.866 596.618 109.062 595.627 109.062Z" stroke="#393E3F" stroke-miterlimit="10"/>
<path d="M595.627 101.17H575.214C574.223 101.17 573.42 101.973 573.42 102.964V107.251C573.42 108.242 574.223 109.045 575.214 109.045H595.627C596.618 109.045 597.421 108.242 597.421 107.251V102.964C597.421 101.973 596.618 101.17 595.627 101.17Z" stroke="#393E3F" stroke-miterlimit="10"/>
<path d="M639.108 359.959H627.484V381.61H639.108V359.959Z" stroke="#393E3F" stroke-miterlimit="10"/>
<path d="M639.108 381.61H627.484V403.261H639.108V381.61Z" stroke="#393E3F" stroke-miterlimit="10"/>
<path d="M639.108 403.261H627.484V424.912H639.108V403.261Z" stroke="#393E3F" stroke-miterlimit="10"/>
<path d="M445.99 355.744H439.496V421.989H445.99V355.744Z" stroke="#393E3F" stroke-miterlimit="10"/>
<path d="M348.659 291.795V322.056H403.8V375.098H433.685" stroke="#393E3F" stroke-miterlimit="10"/>
<path d="M403.799 369.071H433.683" stroke="#393E3F" stroke-width="0.5" stroke-miterlimit="10"/>
<path d="M403.799 362.633H433.683" stroke="#393E3F" stroke-width="0.5" stroke-miterlimit="10"/>
<path d="M403.799 356.21H433.683" stroke="#393E3F" stroke-width="0.5" stroke-miterlimit="10"/>
<path d="M403.799 349.788H433.683" stroke="#393E3F" stroke-width="0.5" stroke-miterlimit="10"/>
<path d="M403.799 343.349H433.683" stroke="#393E3F" stroke-width="0.5" stroke-miterlimit="10"/>
<path d="M403.799 336.927H433.683" stroke="#393E3F" stroke-width="0.5" stroke-miterlimit="10"/>
<path d="M403.799 330.487H433.683" stroke="#393E3F" stroke-width="0.5" stroke-miterlimit="10"/>
<path d="M403.799 324.065H433.683" stroke="#393E3F" stroke-width="0.5" stroke-miterlimit="10"/>
<path d="M400.534 322.056V292.172" stroke="#393E3F" stroke-width="0.5" stroke-miterlimit="10"/>
<path d="M394.094 322.056V292.172" stroke="#393E3F" stroke-width="0.5" stroke-miterlimit="10"/>
<path d="M387.673 322.056V292.172" stroke="#393E3F" stroke-width="0.5" stroke-miterlimit="10"/>
<path d="M381.232 322.056V292.172" stroke="#393E3F" stroke-width="0.5" stroke-miterlimit="10"/>
<path d="M374.812 322.056V292.172" stroke="#393E3F" stroke-width="0.5" stroke-miterlimit="10"/>
<path d="M368.391 322.056V292.172" stroke="#393E3F" stroke-width="0.5" stroke-miterlimit="10"/>
<path d="M361.95 322.056V292.172" stroke="#393E3F" stroke-width="0.5" stroke-miterlimit="10"/>
<path d="M355.529 322.056V292.172" stroke="#393E3F" stroke-width="0.5" stroke-miterlimit="10"/>
<path d="M417.072 385.413V307.509H343.168" stroke="#393E3F" stroke-miterlimit="10"/>
<path d="M420.445 385.412C420.445 387.278 418.938 388.785 417.073 388.785C415.207 388.785 413.7 387.278 413.7 385.412C413.7 383.547 415.207 382.04 417.073 382.04C418.938 382.04 420.445 383.547 420.445 385.412Z" fill="#393E3F"/>
<path d="M344.48 303.042L336.73 307.509L344.48 311.975V303.042Z" fill="#393E3F"/>
<path d="M227.326 371.708H208.617V397.574H227.326V371.708Z" stroke="#393E3F" stroke-miterlimit="10"/>
<path d="M217.962 374.614C220.814 374.614 223.11 379.117 223.11 384.659C223.11 390.202 220.796 394.705 217.962 394.705C215.127 394.705 212.813 390.202 212.813 384.659C212.813 379.117 215.127 374.614 217.962 374.614Z" stroke="#393E3F" stroke-miterlimit="10"/>
<path d="M227.326 402.006H208.617V427.872H227.326V402.006Z" stroke="#393E3F" stroke-miterlimit="10"/>
<path d="M217.962 404.893C220.814 404.893 223.11 409.395 223.11 414.938C223.11 420.481 220.796 424.983 217.962 424.983C215.127 424.983 212.813 420.481 212.813 414.938C212.813 409.395 215.127 404.893 217.962 404.893Z" stroke="#393E3F" stroke-miterlimit="10"/>
<path d="M116.183 408.518H109.994C109.003 408.518 108.2 409.321 108.2 410.311V423.37C108.2 424.361 109.003 425.164 109.994 425.164H116.183C117.173 425.164 117.976 424.361 117.976 423.37V410.311C117.976 409.321 117.173 408.518 116.183 408.518Z" stroke="#393E3F" stroke-miterlimit="10"/>
<path d="M112.577 418.742C111.537 418.742 110.676 417.899 110.676 416.841C110.676 415.783 111.519 414.939 112.577 414.939C113.636 414.939 114.479 415.783 114.479 416.841C114.479 417.899 113.636 418.742 112.577 418.742Z" stroke="#393E3F" stroke-miterlimit="10"/>
<path d="M117.978 410.616H127C127 410.616 134.965 410.616 134.965 416.841C134.965 422.204 128.148 422.904 127.269 422.904H117.978" stroke="#393E3F" stroke-miterlimit="10"/>
<path d="M127.125 420.464C124.076 420.464 121.601 418.796 121.601 416.751C121.601 414.706 124.076 413.038 127.125 413.038C130.175 413.038 132.65 414.706 132.65 416.751C132.65 418.796 130.175 420.464 127.125 420.464Z" stroke="#393E3F" stroke-miterlimit="10"/>
<path d="M42.1004 241.336H12.0186V252.852H42.1004V241.336Z" stroke="#393E3F" stroke-miterlimit="10"/>
<path d="M72.1814 241.336H42.0996V252.852H72.1814V241.336Z" stroke="#393E3F" stroke-miterlimit="10"/>
<path d="M36.9329 416.087H12.0352V438.581H36.9329V416.087Z" stroke="#393E3F" stroke-miterlimit="10"/>
<path d="M33.5256 434.491H18.9062V438.581H33.5256V434.491Z" stroke="#393E3F" stroke-miterlimit="10"/>
<path d="M66.7991 416.087H41.9014V438.581H66.7991V416.087Z" stroke="#393E3F" stroke-miterlimit="10"/>
<path d="M63.3928 434.491H48.7734V438.581H63.3928V434.491Z" stroke="#393E3F" stroke-miterlimit="10"/>
<path d="M29.4356 132.508H7.03125V179.29H29.4356V132.508Z" stroke="#393E3F" stroke-miterlimit="10"/>
<path d="M22.1005 149.691H14.8895C13.8988 149.691 13.0957 150.495 13.0957 151.485V158.696C13.0957 159.687 13.8988 160.49 14.8895 160.49H22.1005C23.0912 160.49 23.8943 159.687 23.8943 158.696V151.485C23.8943 150.495 23.0912 149.691 22.1005 149.691Z" stroke="#393E3F" stroke-miterlimit="10"/>
<path d="M22.1005 163.378H14.8895C13.8988 163.378 13.0957 164.181 13.0957 165.172V172.383C13.0957 173.373 13.8988 174.177 14.8895 174.177H22.1005C23.0912 174.177 23.8943 173.373 23.8943 172.383V165.172C23.8943 164.181 23.0912 163.378 22.1005 163.378Z" stroke="#393E3F" stroke-miterlimit="10"/>
<path d="M13.6494 135.485V146.553" stroke="#393E3F" stroke-miterlimit="10"/>
<path d="M16.0713 135.485V146.553" stroke="#393E3F" stroke-miterlimit="10"/>
<path d="M18.4932 135.485V146.553" stroke="#393E3F" stroke-miterlimit="10"/>
<path d="M20.915 135.485V146.553" stroke="#393E3F" stroke-miterlimit="10"/>
<path d="M23.3369 135.485V146.553" stroke="#393E3F" stroke-miterlimit="10"/>
<path d="M29.4356 179.289H7.03125V207.774H29.4356V179.289Z" stroke="#393E3F" stroke-miterlimit="10"/>
<path d="M29.4356 207.773H7.03125V236.259H29.4356V207.773Z" stroke="#393E3F" stroke-miterlimit="10"/>
<path d="M32.6286 116.722H7.03125V132.489H32.6286V116.722Z" stroke="#393E3F" stroke-miterlimit="10"/>
<path d="M159.02 64.2534C159.02 77.0072 148.688 87.3573 135.916 87.3573C123.145 87.3573 112.812 77.0251 112.812 64.2534C112.812 51.4816 123.145 41.1494 135.916 41.1494C148.688 41.1494 159.02 51.4816 159.02 64.2534Z" stroke="#393E3F" stroke-miterlimit="10"/>
<path d="M140.936 26.8535H130.873V36.8449H140.936V26.8535Z" stroke="#393E3F" stroke-miterlimit="10"/>
<path d="M142.354 23.4453H129.475V26.8535H142.354V23.4453Z" stroke="#393E3F" stroke-miterlimit="10"/>
<path d="M140.936 91.6631H130.873V101.654H140.936V91.6631Z" stroke="#393E3F" stroke-miterlimit="10"/>
<path d="M142.354 101.654H129.475V105.062H142.354V101.654Z" stroke="#393E3F" stroke-miterlimit="10"/>
<path d="M108.507 59.2129H98.5156V69.276H108.507V59.2129Z" stroke="#393E3F" stroke-miterlimit="10"/>
<path d="M98.5156 57.8145H95.1074V70.6939H98.5156V57.8145Z" stroke="#393E3F" stroke-miterlimit="10"/>
<path d="M173.317 59.2129H163.325V69.276H173.317V59.2129Z" stroke="#393E3F" stroke-miterlimit="10"/>
<path d="M176.724 57.8145H173.315V70.6939H176.724V57.8145Z" stroke="#393E3F" stroke-miterlimit="10"/>
<path d="M115.806 124.596H88.3076V206.41H115.806V124.596Z" stroke="#393E3F" stroke-miterlimit="10"/>
<path d="M132.741 185.298C132.741 188.617 130.05 191.307 126.732 191.307C123.413 191.307 120.723 188.617 120.723 185.298C120.723 181.98 123.413 179.289 126.732 179.289C130.05 179.289 132.741 181.98 132.741 185.298Z" stroke="#393E3F" stroke-miterlimit="10"/>
<path d="M132.741 165.495C132.741 168.813 130.05 171.504 126.732 171.504C123.413 171.504 120.723 168.813 120.723 165.495C120.723 162.176 123.413 159.485 126.732 159.485C130.05 159.485 132.741 162.176 132.741 165.495Z" stroke="#393E3F" stroke-miterlimit="10"/>
<path d="M132.741 145.691C132.741 149.009 130.05 151.7 126.732 151.7C123.413 151.7 120.723 149.009 120.723 145.691C120.723 142.372 123.413 139.682 126.732 139.682C130.05 139.682 132.741 142.372 132.741 145.691Z" stroke="#393E3F" stroke-miterlimit="10"/>
<path d="M83.4119 185.298C83.4119 188.617 80.7213 191.307 77.4028 191.307C74.0842 191.307 71.3936 188.617 71.3936 185.298C71.3936 181.98 74.0842 179.289 77.4028 179.289C80.7213 179.289 83.4119 181.98 83.4119 185.298Z" stroke="#393E3F" stroke-miterlimit="10"/>
<path d="M83.4119 165.495C83.4119 168.813 80.7213 171.504 77.4028 171.504C74.0842 171.504 71.3936 168.813 71.3936 165.495C71.3936 162.176 74.0842 159.485 77.4028 159.485C80.7213 159.485 83.4119 162.176 83.4119 165.495Z" stroke="#393E3F" stroke-miterlimit="10"/>
<path d="M83.4119 145.691C83.4119 149.009 80.7213 151.7 77.4028 151.7C74.0842 151.7 71.3936 149.009 71.3936 145.691C71.3936 142.372 74.0842 139.682 77.4028 139.682C80.7213 139.682 83.4119 142.372 83.4119 145.691Z" stroke="#393E3F" stroke-miterlimit="10"/>
<path d="M583.967 186.59C583.967 199.039 573.868 209.138 561.419 209.138C548.97 209.138 538.871 199.039 538.871 186.59C538.871 174.141 548.97 164.042 561.419 164.042C573.868 164.042 583.967 174.141 583.967 186.59Z" stroke="#393E3F" stroke-miterlimit="10"/>
<path d="M499.516 122.39C499.516 128.453 494.602 133.35 488.539 133.35C482.476 133.35 477.561 128.435 477.561 122.39C477.561 116.345 482.476 111.412 488.539 111.412C494.602 111.412 499.516 116.327 499.516 122.39Z" stroke="#393E3F" stroke-miterlimit="10"/>
<path d="M637.547 149.387H627.484V221.048H637.547V149.387Z" stroke="#393E3F" stroke-miterlimit="10"/>
<path d="M366.829 187.451C366.829 199.254 357.268 208.815 345.465 208.815H308.477C296.674 208.815 287.113 199.254 287.113 187.451C287.113 175.648 296.674 166.087 308.477 166.087H345.465C357.268 166.087 366.829 175.648 366.829 187.451Z" stroke="#393E3F" stroke-miterlimit="10"/>
<path d="M321.769 146.086H313.177C312.186 146.086 311.383 146.889 311.383 147.88V157.189C311.383 158.18 312.186 158.983 313.177 158.983H321.769C322.76 158.983 323.563 158.18 323.563 157.189V147.88C323.563 146.889 322.76 146.086 321.769 146.086Z" stroke="#393E3F" stroke-miterlimit="10"/>
<path d="M340.765 146.086H332.173C331.182 146.086 330.379 146.889 330.379 147.88V157.189C330.379 158.18 331.182 158.983 332.173 158.983H340.765C341.756 158.983 342.559 158.18 342.559 157.189V147.88C342.559 146.889 341.756 146.086 340.765 146.086Z" stroke="#393E3F" stroke-miterlimit="10"/>
<path d="M321.77 215.452H313.178C312.187 215.452 311.384 216.255 311.384 217.246V226.556C311.384 227.546 312.187 228.349 313.178 228.349H321.77C322.761 228.349 323.564 227.546 323.564 226.556V217.246C323.564 216.255 322.761 215.452 321.77 215.452Z" stroke="#393E3F" stroke-miterlimit="10"/>
<path d="M340.766 215.452H332.174C331.183 215.452 330.38 216.255 330.38 217.246V226.556C330.38 227.546 331.183 228.349 332.174 228.349H340.766C341.757 228.349 342.56 227.546 342.56 226.556V217.246C342.56 216.255 341.757 215.452 340.766 215.452Z" stroke="#393E3F" stroke-miterlimit="10"/>
<path d="M384.784 181.352H375.474C374.484 181.352 373.681 182.155 373.681 183.145V191.738C373.681 192.728 374.484 193.531 375.474 193.531H384.784C385.775 193.531 386.578 192.728 386.578 191.738V183.145C386.578 182.155 385.775 181.352 384.784 181.352Z" stroke="#393E3F" stroke-miterlimit="10"/>
<path d="M278.969 181.352H269.659C268.668 181.352 267.865 182.155 267.865 183.145V191.738C267.865 192.728 268.668 193.531 269.659 193.531H278.969C279.959 193.531 280.763 192.728 280.763 191.738V183.145C280.763 182.155 279.959 181.352 278.969 181.352Z" stroke="#393E3F" stroke-miterlimit="10"/>
</svg>
